<svg aria-hidden="true" style="position: absolute; width: 0; height: 0; overflow: hidden;" version="1.1" xmlns="http://www.w3.org/2000/svg" xmlns:xlink="http://www.w3.org/1999/xlink">
<defs>
<symbol id="icon-hero-star" viewBox="0 0 34 32">
<path stroke-linejoin="round" stroke-linecap="round" stroke-miterlimit="4" stroke-width="2.5263" d="M16.842 2.807l4.337 8.786 9.698 1.418-7.018 6.835 1.656 9.656-8.674-4.562-8.674 4.562 1.656-9.656-7.018-6.835 9.698-1.418 4.337-8.786z"></path>
</symbol>
<symbol id="icon-header-camera" viewBox="0 0 32 32">
<path fill="#bea69e" style="fill: var(--color1, #bea69e)" opacity="0.4" d="M21 17c0 1.326-0.527 2.598-1.464 3.536s-2.209 1.464-3.536 1.464-2.598-0.527-3.536-1.464c-0.938-0.938-1.464-2.21-1.464-3.536s0.527-2.598 1.464-3.536c0.938-0.938 2.209-1.464 3.536-1.464s2.598 0.527 3.536 1.464c0.938 0.938 1.464 2.209 1.464 3.536z"></path>
<path fill="#bea69e" style="fill: var(--color1, #bea69e)" opacity="0.4" d="M4 8c-1.061 0-2.078 0.421-2.828 1.172s-1.172 1.768-1.172 2.828v12c0 1.061 0.421 2.078 1.172 2.828s1.768 1.172 2.828 1.172h24c1.061 0 2.078-0.421 2.828-1.172s1.172-1.768 1.172-2.828v-12c0-1.061-0.421-2.078-1.172-2.828s-1.768-1.172-2.828-1.172h-2.344c-1.061-0-2.078-0.422-2.828-1.172l-1.656-1.656c-0.75-0.75-1.767-1.172-2.828-1.172h-4.688c-1.061 0-2.078 0.422-2.828 1.172l-1.656 1.656c-0.75 0.75-1.767 1.172-2.828 1.172h-2.344zM5 12c-0.265 0-0.52-0.105-0.707-0.293s-0.293-0.442-0.293-0.707c0-0.265 0.105-0.52 0.293-0.707s0.442-0.293 0.707-0.293c0.265 0 0.52 0.105 0.707 0.293s0.293 0.442 0.293 0.707c0 0.265-0.105 0.52-0.293 0.707s-0.442 0.293-0.707 0.293zM23 17c0 1.857-0.737 3.637-2.050 4.95s-3.093 2.050-4.95 2.050c-1.857 0-3.637-0.737-4.95-2.050s-2.050-3.093-2.050-4.95c0-1.857 0.738-3.637 2.050-4.95s3.093-2.050 4.95-2.050c1.857 0 3.637 0.738 4.95 2.050s2.050 3.093 2.050 4.95z"></path>
</symbol>
<symbol id="icon-header-menu-close" viewBox="0 0 32 32">
<path stroke-linejoin="round" stroke-linecap="round" stroke-miterlimit="4" stroke-width="4" d="M2.667 2.667l26.667 26.667"></path>
</symbol>
<symbol id="icon-header-menu-open" viewBox="0 0 46 32">
<path fill="none" stroke="#fff" style="stroke: var(--color2, #fff)" stroke-linejoin="miter" stroke-linecap="round" stroke-miterlimit="4" stroke-width="3.4286" d="M8.671 5.074h35.329"></path>
<path fill="none" stroke="#fff" style="stroke: var(--color2, #fff)" stroke-linejoin="miter" stroke-linecap="round" stroke-miterlimit="4" stroke-width="3.4286" d="M8.671 24.468h35.329"></path>
<path fill="none" stroke="#fff" style="stroke: var(--color2, #fff)" stroke-linejoin="miter" stroke-linecap="round" stroke-miterlimit="4" stroke-width="3.4286" d="M19.602 14.771h24.398"></path>
</symbol>
<symbol id="icon-hero-arrow" viewBox="0 0 64 32">
<path fill="#fff" style="fill: var(--color2, #fff)" d="M44.444 0l19.556 15.396-19.556 15.396v-12.729h-44.444v-5.333h44.444v-12.729z"></path>
</symbol>
<symbol id="icon-our-courses-arrow" viewBox="0 0 32 32">
<path fill="none" stroke="#777" style="stroke: var(--color3, #777)" stroke-linejoin="round" stroke-linecap="round" stroke-miterlimit="4" stroke-width="2.0800" d="M8 24l16-16"></path>
<path fill="none" stroke="#777" style="stroke: var(--color3, #777)" stroke-linejoin="round" stroke-linecap="round" stroke-miterlimit="4" stroke-width="2.0800" d="M13.333 8h10.667v10.667"></path>
</symbol>
<symbol id="icon-review-star-color" viewBox="0 0 34 32">
<path fill="#bea69e" style="fill: var(--color1, #bea69e); stroke: var(--color1, #bea69e)" stroke="#bea69e" stroke-linejoin="round" stroke-linecap="round" stroke-miterlimit="4" stroke-width="2.8235" d="M16.941 1.882l4.653 9.293 10.406 1.499-7.529 7.229 1.777 10.213-9.306-4.825-9.306 4.825 1.777-10.213-7.529-7.229 10.406-1.499 4.653-9.293z"></path>
</symbol>
<symbol id="icon-review-star-empty" viewBox="0 0 34 32">
<path fill="#fff" style="fill: var(--color2, #fff)" opacity="0.2" stroke-linejoin="round" stroke-linecap="round" stroke-miterlimit="4" stroke-width="1.8824" stroke="#000" d="M16.941 1.882l4.653 9.293 10.406 1.499-7.529 7.229 1.777 10.213-9.306-4.825-9.306 4.825 1.777-10.213-7.529-7.229 10.406-1.499 4.653-9.293z"></path>
</symbol>
</defs>
</svg>
